<?xml version="1.0" encoding="UTF-8" standalone="no"?>
<svg
   xmlns:sketch="http://www.bohemiancoding.com/sketch/ns"
   xmlns:dc="http://purl.org/dc/elements/1.1/"
   xmlns:cc="http://creativecommons.org/ns#"
   xmlns:rdf="http://www.w3.org/1999/02/22-rdf-syntax-ns#"
   xmlns:svg="http://www.w3.org/2000/svg"
   xmlns="http://www.w3.org/2000/svg"
   xmlns:sodipodi="http://sodipodi.sourceforge.net/DTD/sodipodi-0.dtd"
   xmlns:inkscape="http://www.inkscape.org/namespaces/inkscape"
   width="49.026833"
   height="32"
   viewBox="0 0 49.026833 32"
   version="1.1"
   id="svg2"
   inkscape:version="0.91 r13725"
   sodipodi:docname="cardboard.svg">
  <metadata
     id="metadata16">
    <rdf:RDF>
      <cc:Work
         rdf:about="">
        <dc:format>image/svg+xml</dc:format>
        <dc:type
           rdf:resource="http://purl.org/dc/dcmitype/StillImage" />
        <dc:title>cardboard</dc:title>
      </cc:Work>
    </rdf:RDF>
  </metadata>
  <sodipodi:namedview
     pagecolor="#ffffff"
     bordercolor="#666666"
     borderopacity="1"
     objecttolerance="10"
     gridtolerance="10"
     guidetolerance="10"
     inkscape:pageopacity="0"
     inkscape:pageshadow="2"
     inkscape:window-width="757"
     inkscape:window-height="480"
     id="namedview14"
     showgrid="false"
     fit-margin-top="0"
     fit-margin-left="0"
     fit-margin-right="0"
     fit-margin-bottom="0"
     inkscape:zoom="9.8333333"
     inkscape:cx="24.569915"
     inkscape:cy="24.625754"
     inkscape:window-x="0"
     inkscape:window-y="25"
     inkscape:window-maximized="0"
     inkscape:current-layer="svg2" />
  <!-- Generator: Sketch 3.2.2 (9983) - http://www.bohemiancoding.com/sketch -->
  <title
     id="title4">cardboard</title>
  <desc
     id="desc6">Created with Sketch.</desc>
  <defs
     id="defs8" />
  <g
     id="Page-1"
     sketch:type="MSPage"
     style="fill:#ffffff;fill-rule:evenodd;stroke:none;stroke-width:1"
     transform="matrix(2.4652697,0,0,2.4652697,-4.9305394,-14.791618)">
    <g
       id="cardboard"
       sketch:type="MSArtboardGroup"
       style="fill:#ffffff">
      <path
         d="M 20.636497,6 3.1986441,6 C 2.5482486,6 2,6.5683694 2,7.2693153 L 2,17.711126 c 0,0.700946 0.5482486,1.269198 1.2246328,1.269198 l 4.7633898,0 c 0.5107345,0 0.9484746,-0.323829 1.1324294,-0.784333 l 1.385085,-3.467252 c 0.233559,-0.584649 0.789378,-0.995964 1.437966,-0.995964 0.648587,0 1.204407,0.411315 1.437966,0.995964 l 1.385085,3.467252 c 0.183955,0.460504 0.621695,0.784333 1.10644,0.784333 l 4.763503,0 c 0.70226,0 1.250509,-0.568252 1.250509,-1.269198 l 0,-10.4418107 C 21.887006,6.5683694 21.338757,6 20.636497,6 l 0,0 z M 7.4331073,14.774414 c -1.218418,0 -2.2049717,-1.022081 -2.2049717,-2.284252 0,-1.262171 0.9865537,-2.284135 2.2049717,-2.284135 1.2183051,0 2.2028249,1.021964 2.2028249,2.284135 0,1.262171 -0.9866667,2.284252 -2.2028249,2.284252 l 0,0 z m 9.0219207,-0.0011 c -1.21774,0 -2.203955,-1.021612 -2.203955,-2.283198 0,-1.261468 0.986215,-2.283081 2.203955,-2.283081 1.21774,0 2.203955,1.021613 2.203955,2.283081 0,1.261586 -0.986215,2.283198 -2.203955,2.283198 l 0,0 z"
         id="Imported-Layers"
         sketch:type="MSShapeGroup"
         inkscape:connector-curvature="0"
         style="fill:#ffffff" />
      <g
         id="Oval-2-+-Imported-Layers"
         sketch:type="MSLayerGroup"
         transform="translate(18,20)"
         style="fill:#ffffff" />
    </g>
  </g>
</svg>
