<?xml version="1.0" encoding="UTF-8" standalone="no"?>
<svg
   xmlns:dc="http://purl.org/dc/elements/1.1/"
   xmlns:cc="http://creativecommons.org/ns#"
   xmlns:rdf="http://www.w3.org/1999/02/22-rdf-syntax-ns#"
   xmlns:svg="http://www.w3.org/2000/svg"
   xmlns="http://www.w3.org/2000/svg"
   xmlns:sodipodi="http://sodipodi.sourceforge.net/DTD/sodipodi-0.dtd"
   xmlns:inkscape="http://www.inkscape.org/namespaces/inkscape"
   height="32"
   id="Layer_1"
   version="1.1"
   viewBox="0 0 83.192533 31.999999"
   width="83.192528"
   xml:space="preserve"
   inkscape:version="0.91 r13725"
   sodipodi:docname="quadcopter.svg"><metadata
     id="metadata19"><rdf:RDF><cc:Work
         rdf:about=""><dc:format>image/svg+xml</dc:format><dc:type
           rdf:resource="http://purl.org/dc/dcmitype/StillImage" /><dc:title></dc:title></cc:Work></rdf:RDF></metadata><sodipodi:namedview
     pagecolor="#ffffff"
     bordercolor="#666666"
     borderopacity="1"
     objecttolerance="10"
     gridtolerance="10"
     guidetolerance="10"
     inkscape:pageopacity="0"
     inkscape:pageshadow="2"
     inkscape:window-width="757"
     inkscape:window-height="480"
     id="namedview17"
     showgrid="false"
     fit-margin-top="0"
     fit-margin-left="0"
     fit-margin-right="0"
     fit-margin-bottom="0"
     inkscape:zoom="0.4609375"
     inkscape:cx="41.596257"
     inkscape:cy="16.000009"
     inkscape:window-x="0"
     inkscape:window-y="25"
     inkscape:window-maximized="0"
     inkscape:current-layer="Layer_1" /><defs
     id="defs7" /><g
     id="g2993"
     transform="matrix(0.17331799,0,0,0.17331799,-2.7731448,-28.369407)"
     style="fill:#ffffff"><g
       id="g8459"
       transform="translate(7611.8122,-4964.4576)"
       style="fill:#ffffff"><path
         d="m -7527.669,5128.1417 c -3.0134,0 -5.4603,2.4468 -5.4603,5.4602 l 0,30.8362 c -5.9533,0.5405 -14.6719,3.405 -15.7856,13.5455 -0.7926,12.0767 5.346,36.62 21.2459,37.1015 15.9,-0.4815 22.0025,-25.0249 21.2108,-37.1015 -0.1218,-1.1027 -0.3382,-2.1103 -0.63,-3.045 25.647,0 51.8185,0 75.6379,0 3.7907,8.0856 7.8254,16.1481 11.4105,24.3259 0.9641,2.1941 3.7476,3.7452 6.0203,3.7452 l 35.4563,0 c 5.8382,5.7937 13.8739,9.4153 22.7509,9.4153 8.8761,0 16.9137,-3.6215 22.7509,-9.4153 l 35.4214,0 c 2.2744,0 5.1263,-1.5512 6.0902,-3.7452 3.585,-8.1779 7.5498,-16.2403 11.3405,-24.3259 34.977,0 43.5602,-2e-4 75.6729,0 -0.2918,0.9347 -0.5082,1.9423 -0.63,3.045 -0.7917,12.0766 5.3108,36.62 21.2109,37.1015 15.8998,-0.4815 22.0384,-25.0248 21.2458,-37.1015 -1.1137,-10.1405 -9.8323,-13.005 -15.7856,-13.5455 l 0,-30.8362 c 0,-3.0134 -2.4469,-5.4602 -5.4602,-5.4602 -3.0135,0 -5.4253,2.4468 -5.4253,5.4602 l 0,30.6962 c -46.3566,-0.049 -65.1772,6e-4 -106.5442,0 -0.528,-2.1087 -1.074,-4.1869 -1.61,-6.3353 -0.4792,-1.9193 -2.3619,-3.392 -4.3401,-3.395 l -107.8744,0 c -0.035,-5e-4 -0.069,-5e-4 -0.1053,0 -1.943,0.048 -3.7649,1.5092 -4.2352,3.395 -0.5415,2.156 -1.0836,4.2298 -1.6099,6.3353 -37.3043,0 -77.6572,-0.029 -106.5442,0 l 0,-30.6962 c 0,-3.0134 -2.4118,-5.4602 -5.4253,-5.4602 z"
         id="path8278"
         style="fill:#ffffff;fill-opacity:1"
         inkscape:connector-curvature="0" /><path
         d="m -7575.096,5139.7272 c -6.3945,-0.011 -11.3105,0.6764 -14.3504,1.5051 -15.356,4.3524 0.011,11.94 15.0855,13.6155 11.6943,0.89 23.3507,0.045 34.9663,-1.7852 -0.1205,-3.0897 -0.2586,-6.2309 -0.28,-9.3102 -3.466,-0.052 -7.5202,-0.4328 -12.2503,-1.4351 -8.9381,-1.8929 -16.7763,-2.5901 -23.1711,-2.5901 z"
         id="path8276"
         style="fill:#ffffff;fill-opacity:1"
         inkscape:connector-curvature="0" /><path
         d="m -7136.5286,5139.7272 c -6.3948,0 -14.233,0.6972 -23.171,2.5901 -4.7303,1.0023 -8.7843,1.3836 -12.2504,1.4351 -0.021,3.0793 -0.1594,6.2205 -0.28,9.3102 11.6156,1.8294 23.272,2.6752 34.9663,1.7852 15.0756,-1.6755 30.4416,-9.2631 15.0855,-13.6155 -3.0399,-0.8287 -7.9558,-1.5133 -14.3504,-1.5051 z"
         id="path8274"
         style="fill:#ffffff;fill-opacity:1"
         inkscape:connector-curvature="0" /><path
         d="m -7492.2826,5139.7619 c -7.8971,0.1064 -15.7683,0.9061 -23.626,2.1351 -0.067,0.3294 -0.126,0.6622 -0.21,0.9801 -0.1977,2.669 -0.094,5.4429 0.069,8.2603 3.543,0.038 7.7085,0.4326 12.6005,1.4701 17.8762,3.7858 31.4448,2.7432 37.5215,1.0851 15.3571,-4.3538 -0.011,-11.9743 -15.0856,-13.6507 -2.6315,-0.2016 -5.246,-0.253 -7.8753,-0.28 -1.1288,-0.013 -2.267,-0.016 -3.3951,0 z"
         id="path8272"
         style="fill:#ffffff;fill-opacity:1"
         inkscape:connector-curvature="0" /><path
         d="m -7222.7371,5139.7619 c -2.6293,0.027 -5.2438,0.078 -7.8752,0.28 -15.0746,1.6764 -30.4427,9.297 -15.0857,13.6507 6.0767,1.6581 19.6454,2.7007 37.5215,-1.0851 4.892,-1.0375 9.0576,-1.4325 12.6005,-1.4701 0.1637,-2.8174 0.2671,-5.5913 0.069,-8.2603 -0.084,-0.3179 -0.1429,-0.6507 -0.21,-0.9801 -8.9801,-1.4046 -17.9908,-2.2446 -27.021,-2.1351 z"
         id="path8158"
         style="fill:#ffffff;fill-opacity:1"
         inkscape:connector-curvature="0" /><path
         d="m -7295.3496,5180.6347 c 0.1688,2.3355 0.245,4.6795 0.245,7.0702 l 0,2.9401 c 24.016,12.3256 40.3215,37.2749 40.3215,66.2927 l 0,34.5113 c 0,2.4744 2.0059,4.4802 4.4802,4.4802 2.4744,0 4.4802,-2.0058 4.4802,-4.4802 l 0,-34.5113 c 0,-34.0785 -20.3221,-63.3179 -49.5269,-76.303 z"
         id="rect8203"
         style="color:#000000;font-style:normal;font-variant:normal;font-weight:normal;font-stretch:normal;font-size:medium;line-height:normal;font-family:Sans;-inkscape-font-specification:Sans;text-indent:0;text-align:start;text-decoration:none;text-decoration-line:none;letter-spacing:normal;word-spacing:normal;text-transform:none;direction:ltr;block-progression:tb;writing-mode:lr-tb;baseline-shift:baseline;text-anchor:start;display:inline;overflow:visible;visibility:visible;fill:#ffffff;fill-opacity:1;stroke:none;stroke-width:8;marker:none;enable-background:accumulate"
         inkscape:connector-curvature="0" /><path
         d="m -7416.2752,5180.6347 c -0.1687,2.3355 -0.2449,4.6795 -0.2449,7.0702 l 0,2.9401 c -24.0161,12.3256 -40.3216,37.2749 -40.3216,66.2927 l 0,34.5113 c 0,2.4744 -2.0059,4.4802 -4.4802,4.4802 -2.4744,0 -4.4801,-2.0058 -4.4801,-4.4802 l 0,-34.5113 c 0,-34.0785 20.322,-63.3179 49.5268,-76.303 z"
         id="path8237"
         style="color:#000000;font-style:normal;font-variant:normal;font-weight:normal;font-stretch:normal;font-size:medium;line-height:normal;font-family:Sans;-inkscape-font-specification:Sans;text-indent:0;text-align:start;text-decoration:none;text-decoration-line:none;letter-spacing:normal;word-spacing:normal;text-transform:none;direction:ltr;block-progression:tb;writing-mode:lr-tb;baseline-shift:baseline;text-anchor:start;display:inline;overflow:visible;visibility:visible;fill:#ffffff;fill-opacity:1;stroke:none;stroke-width:8;marker:none;enable-background:accumulate"
         inkscape:connector-curvature="0" /><g
         id="g8454"
         transform="matrix(-0.40478095,-0.16816973,0.16816973,-0.40478095,-11222.08,6275.8761)"
         style="fill:#ffffff"><path
           d="m -7166.3617,5546.342 c -53.4496,-21.0118 -114.2115,4.7606 -136.2599,57.7896 -5.4432,13.0912 14.9344,21.3156 20.3721,8.238 17.4553,-41.9831 65.3335,-62.2902 107.6498,-45.6555 13.1809,5.1821 21.4313,-15.1851 8.238,-20.3721 z"
           id="path7-3"
           style="fill:#ffffff;fill-opacity:1"
           inkscape:connector-curvature="0" /><path
           d="m -7143.9933,5480.9012 c -41.859,-16.6466 -88.4848,-16.3041 -130.0589,1.0603 -41.3964,17.2911 -74.1743,51.4376 -91.1644,92.764 -5.3903,13.1097 14.9849,21.3403 20.3722,8.238 14.9546,-36.3745 43.2421,-65.2143 79.3717,-80.7708 35.98,-15.4921 76.9892,-15.3347 113.2402,-0.9199 13.1644,5.2372 21.4108,-15.1344 8.238,-20.3721 z"
           id="path9-59"
           style="fill:#ffffff;fill-opacity:1"
           inkscape:connector-curvature="0" /><path
           d="m -7136.5338,5423.7527 c 8.3454,2.3792 16.5353,5.2815 24.5895,8.5054 13.1544,5.2619 21.3968,-15.107 8.2379,-20.3721 -56.9991,-22.8063 -119.7259,-24.8086 -178.1666,-6.2615 -56.6649,17.9852 -106.3318,56.6668 -138.4192,106.5844 -8.8403,13.7545 -16.3614,28.3786 -22.5445,43.5093 -5.3614,13.1199 15.0127,21.353 20.3721,8.238 22.2955,-54.5567 63.8188,-99.3528 116.8612,-125.1869 52.1918,-25.4182 113.2106,-30.9403 169.0696,-15.0166 z"
           id="path11-98"
           style="fill:#ffffff;fill-opacity:1"
           inkscape:connector-curvature="0" /></g></g></g></svg>