<svg width="64" height="64" viewBox="0 0 64 64" fill="none" xmlns="http://www.w3.org/2000/svg">
<g clip-path="url(#clip0)">
<path d="M32 36.5C34.4853 36.5 36.5 34.4853 36.5 32C36.5 29.5147 34.4853 27.5 32 27.5C29.5147 27.5 27.5 29.5147 27.5 32C27.5 34.4853 29.5147 36.5 32 36.5Z" fill="white"/>
<path d="M23.78 42.7212C23.3913 42.7216 23.007 42.6396 22.6524 42.4806C22.2977 42.3216 21.9808 42.0892 21.7225 41.7988C19.3235 39.099 17.9984 35.6129 17.9984 32.0012C17.9984 28.3896 19.3235 24.9035 21.7225 22.2037C21.9604 21.9267 22.2511 21.6999 22.5777 21.5364C22.9042 21.373 23.26 21.2762 23.6243 21.2517C23.9887 21.2272 24.3542 21.2756 24.6997 21.3939C25.0452 21.5122 25.3636 21.6981 25.6364 21.9408C25.9093 22.1835 26.131 22.4781 26.2888 22.8075C26.4465 23.1368 26.5371 23.4942 26.5553 23.8589C26.5734 24.2237 26.5187 24.5883 26.3944 24.9317C26.2701 25.275 26.0787 25.5902 25.8312 25.8587C24.3274 27.5517 23.4968 29.7375 23.4968 32.0019C23.4968 34.2663 24.3274 36.4521 25.8312 38.145C26.1831 38.5412 26.4131 39.0305 26.4934 39.5543C26.5738 40.078 26.5011 40.6138 26.2841 41.0972C26.0672 41.5806 25.7152 41.9911 25.2705 42.2792C24.8258 42.5673 24.3074 42.7208 23.7775 42.7212H23.78ZM40.22 42.7212C39.6901 42.7208 39.1717 42.5673 38.727 42.2792C38.2823 41.9911 37.9303 41.5806 37.7134 41.0972C37.4964 40.6138 37.4237 40.078 37.5041 39.5543C37.5844 39.0305 37.8144 38.5412 38.1662 38.145C39.6701 36.4521 40.5007 34.2663 40.5007 32.0019C40.5007 29.7375 39.6701 27.5517 38.1662 25.8587C37.9188 25.5902 37.7274 25.275 37.6031 24.9317C37.4788 24.5883 37.4241 24.2237 37.4422 23.8589C37.4604 23.4942 37.551 23.1368 37.7087 22.8075C37.8665 22.4781 38.0882 22.1835 38.3611 21.9408C38.6339 21.6981 38.9523 21.5122 39.2978 21.3939C39.6432 21.2756 40.0088 21.2272 40.3732 21.2517C40.7375 21.2762 41.0933 21.373 41.4198 21.5364C41.7464 21.6999 42.0371 21.9267 42.275 22.2037C44.674 24.9035 45.9991 28.3896 45.9991 32.0012C45.9991 35.6129 44.674 39.099 42.275 41.7988C42.017 42.0889 41.7005 42.3211 41.3463 42.4801C40.9921 42.6391 40.6082 42.7213 40.22 42.7212V42.7212Z" fill="white"/>
<path d="M17.4113 49.09C17.034 49.0904 16.6608 49.0128 16.3149 48.8623C15.9691 48.7117 15.658 48.4913 15.4013 48.215C11.2891 43.8158 9.00162 38.0187 9.00162 31.9969C9.00162 25.975 11.2891 20.178 15.4013 15.7787C15.6474 15.5127 15.9437 15.298 16.2731 15.1469C16.6025 14.9957 16.9585 14.9112 17.3207 14.8981C17.6829 14.8851 18.0441 14.9437 18.3835 15.0708C18.7229 15.1978 19.0339 15.3906 19.2986 15.6382C19.5632 15.8858 19.7763 16.1833 19.9256 16.5135C20.0749 16.8438 20.1575 17.2002 20.1685 17.5625C20.1796 17.9247 20.1189 18.2856 19.99 18.6243C19.8611 18.9631 19.6666 19.273 19.4175 19.5362C16.2583 22.9166 14.5009 27.3707 14.5009 31.9975C14.5009 36.6243 16.2583 41.0784 19.4175 44.4587C19.7825 44.8503 20.0253 45.3399 20.116 45.8675C20.2068 46.3951 20.1416 46.9376 19.9284 47.4287C19.7153 47.9197 19.3635 48.3379 18.9161 48.6319C18.4688 48.9259 17.9453 49.0829 17.41 49.0837L17.4113 49.09ZM46.5887 49.09C46.0534 49.0892 45.53 48.9321 45.0826 48.6382C44.6353 48.3442 44.2835 47.926 44.0703 47.435C43.8572 46.9439 43.792 46.4013 43.8827 45.8738C43.9735 45.3462 44.2163 44.8566 44.5812 44.465C47.7405 41.0847 49.4978 36.6306 49.4978 32.0037C49.4978 27.3769 47.7405 22.9228 44.5812 19.5425C44.3322 19.2792 44.1376 18.9693 44.0087 18.6306C43.8798 18.2919 43.8192 17.931 43.8302 17.5687C43.8413 17.2065 43.9238 16.85 44.0731 16.5198C44.2224 16.1895 44.4355 15.8921 44.7002 15.6445C44.9648 15.3969 45.2758 15.204 45.6152 15.077C45.9547 14.95 46.3159 14.8913 46.6781 14.9044C47.0402 14.9175 47.3963 15.002 47.7257 15.1531C48.0551 15.3042 48.3514 15.519 48.5975 15.785C52.7096 20.1842 54.9971 25.9813 54.9971 32.0031C54.9971 38.025 52.7096 43.822 48.5975 48.2212C48.3403 48.4963 48.0292 48.7154 47.6836 48.8649C47.338 49.0144 46.9653 49.091 46.5887 49.09V49.09Z" fill="white"/>
<path d="M53.625 54.75C53.0942 54.7499 52.5747 54.5961 52.1293 54.3073C51.6839 54.0184 51.3316 53.6068 51.115 53.1222C50.8984 52.6375 50.8267 52.1005 50.9085 51.576C50.9904 51.0515 51.2223 50.5619 51.5763 50.1663C56.0359 45.166 58.5005 38.7001 58.5005 32C58.5005 25.3 56.0359 18.834 51.5763 13.8338C51.1054 13.2881 50.8676 12.5794 50.914 11.8602C50.9603 11.141 51.2872 10.4687 51.8242 9.98806C52.3612 9.50739 53.0655 9.25676 53.7854 9.29008C54.5054 9.32341 55.1834 9.63803 55.6738 10.1663C61.0358 16.175 63.9992 23.9467 63.9992 32C63.9992 40.0533 61.0358 47.825 55.6738 53.8338C55.4159 54.1219 55.1001 54.3525 54.7471 54.5104C54.3941 54.6683 54.0117 54.7499 53.625 54.75V54.75ZM10.375 54.75C9.9878 54.7507 9.60481 54.6695 9.25126 54.5116C8.89771 54.3536 8.58161 54.1226 8.32376 53.8338C2.96174 47.825 -0.00170898 40.0533 -0.00170898 32C-0.00170898 23.9467 2.96174 16.175 8.32376 10.1663C8.81408 9.63803 9.49217 9.32341 10.2121 9.29008C10.9321 9.25676 11.6363 9.50739 12.1733 9.98806C12.7103 10.4687 13.0372 11.141 13.0836 11.8602C13.1299 12.5794 12.8921 13.2881 12.4213 13.8338C7.96162 18.834 5.49707 25.3 5.49707 32C5.49707 38.7001 7.96162 45.166 12.4213 50.1663C12.7751 50.5617 13.007 51.0511 13.0889 51.5754C13.1709 52.0997 13.0994 52.6365 12.8831 53.121C12.6667 53.6056 12.3148 54.0172 11.8698 54.3062C11.4248 54.5953 10.9057 54.7494 10.375 54.75V54.75Z" fill="white"/>
</g>
<defs>
<clipPath id="clip0">
<rect width="64" height="64" fill="white"/>
</clipPath>
</defs>
</svg>
