<?xml version="1.0" encoding="UTF-8" standalone="no"?>
<svg
   xmlns:dc="http://purl.org/dc/elements/1.1/"
   xmlns:cc="http://creativecommons.org/ns#"
   xmlns:rdf="http://www.w3.org/1999/02/22-rdf-syntax-ns#"
   xmlns:svg="http://www.w3.org/2000/svg"
   xmlns="http://www.w3.org/2000/svg"
   xmlns:sodipodi="http://sodipodi.sourceforge.net/DTD/sodipodi-0.dtd"
   xmlns:inkscape="http://www.inkscape.org/namespaces/inkscape"
   height="32"
   version="1.1"
   viewBox="0 0 67.368425 32"
   width="67.368423"
   id="svg2"
   inkscape:version="0.91 r13725"
   sodipodi:docname="steam.svg">
  <metadata
     id="metadata14">
    <rdf:RDF>
      <cc:Work
         rdf:about="">
        <dc:format>image/svg+xml</dc:format>
        <dc:type
           rdf:resource="http://purl.org/dc/dcmitype/StillImage" />
        <dc:title></dc:title>
      </cc:Work>
    </rdf:RDF>
  </metadata>
  <sodipodi:namedview
     pagecolor="#ffffff"
     bordercolor="#666666"
     borderopacity="1"
     objecttolerance="10"
     gridtolerance="10"
     guidetolerance="10"
     inkscape:pageopacity="0"
     inkscape:pageshadow="2"
     inkscape:window-width="985"
     inkscape:window-height="741"
     id="namedview12"
     showgrid="false"
     inkscape:zoom="0.25046382"
     inkscape:cx="-647.00018"
     inkscape:cy="16"
     inkscape:window-x="0"
     inkscape:window-y="25"
     inkscape:window-maximized="0"
     inkscape:current-layer="Page-1"
     fit-margin-top="0"
     fit-margin-left="0"
     fit-margin-right="0"
     fit-margin-bottom="0" />
  <desc
     id="desc6" />
  <defs
     id="defs8" />
  <g
     id="Page-1"
     style="fill:none;fill-rule:evenodd;stroke:none;stroke-width:1"
     transform="translate(-505.26314,-240)">
    <path
       d="m 548.24279,258.01913 c -1.18323,0.0309 -2.29176,0.36879 -3.25218,0.93858 l -26.23966,-11.48484 c -0.7327,-3.05498 -3.43016,-5.32161 -6.6457,-5.32161 -3.77879,0 -6.84211,3.13024 -6.84211,6.9916 0,3.86135 3.06332,6.99159 6.84211,6.99159 1.33717,0 2.58475,-0.39196 3.6387,-1.06958 l 25.94996,11.22667 c 0.58967,3.24851 3.37727,5.70846 6.72713,5.70846 3.68642,0 6.69192,-2.97909 6.83664,-6.70979 l 9.06233,-7.02722 c 4.64477,-0.33323 8.31155,-4.28912 8.31155,-9.12013 0,-5.04946 -4.00587,-9.14286 -8.94737,-9.14286 -4.8913,0 -8.86589,4.01066 -8.94613,8.98929 l -6.49527,9.02984 0,0 z m 15.70456,-2.6914 c 3.48812,0 6.31579,-2.88946 6.31579,-6.45378 0,-3.56433 -2.82767,-6.45378 -6.31579,-6.45378 -3.48811,0 -6.31579,2.88945 -6.31579,6.45378 0,3.56432 2.82768,6.45378 6.31579,6.45378 l 0,0 0,0 z m 0,-1.88235 c 2.47075,0 4.47368,-2.0467 4.47368,-4.57143 0,-2.52473 -2.00293,-4.57143 -4.47368,-4.57143 -2.47075,0 -4.47368,2.0467 -4.47368,4.57143 0,2.52473 2.00293,4.57143 4.47368,4.57143 l 0,0 0,0 z m -53.38867,-0.62494 c -1.6635,-0.74901 -3.06461,-3.05828 -2.07327,-5.4608 0.95922,-2.32467 3.34066,-2.81074 4.75079,-2.43369 2.12235,0.56748 2.54836,2.35652 3.33945,1.83009 0.90371,-0.60137 -0.59429,-2.47509 -2.73321,-3.14686 -2.24029,-0.7036 -5.59987,0.27673 -6.76193,3.52803 -1.22382,3.42412 1.24705,6.17188 2.71613,6.85668 1.46908,0.68481 3.83905,1.14982 3.75983,-0.16439 -0.0656,-1.08822 -1.33429,-0.26004 -2.99779,-1.00906 l 0,0 0,0 z m 39.22624,8.174 c 1.69958,0.65903 3.21705,2.8902 2.35011,5.34245 -0.83884,2.37278 -3.19212,2.98554 -4.61962,2.68443 -2.14851,-0.45321 -2.66557,-2.21701 -3.42862,-1.649 -0.87166,0.64887 0.72025,2.43992 2.89065,2.99638 2.27324,0.58283 5.57802,-0.57583 6.57196,-3.88482 1.04677,-3.48488 -1.56144,-6.09673 -3.06358,-6.70203 -1.50215,-0.60531 -3.89268,-0.94293 -3.74626,0.36524 0.12124,1.08323 1.34578,0.18833 3.04536,0.84735 l 0,0 0,0 z"
       id="steam"
       style="fill:#ffffff"
       inkscape:connector-curvature="0" />
  </g>
</svg>
